<svg xmlns="http://www.w3.org/2000/svg" version="1.1" width="256" height="256" viewBox="0 0 256 256"
     xml:space="preserve">
<g style="stroke: none; stroke-width: 0; stroke-dasharray: none; stroke-linecap: butt; stroke-linejoin: miter; stroke-miterlimit: 10; fill: none; fill-rule: nonzero; opacity: 1;"
   transform="translate(1.4065934065934016 1.4065934065934016) scale(2.81 2.81)">
	<path d="M 55.024 81.91 H 8.765 C 5.035 81.91 2 78.876 2 75.146 V 28.418 h 79.37 v 19.013 c 0 0.553 0.447 1 1 1 s 1 -0.447 1 -1 V 27.418 v -8.592 c 0 -4.833 -3.932 -8.766 -8.765 -8.766 h -5.197 V 5.77 c 0 -1.946 -1.584 -3.53 -3.53 -3.53 h -2.624 c -1.946 0 -3.529 1.583 -3.529 3.53 v 4.291 H 23.646 V 5.77 c 0 -1.946 -1.583 -3.53 -3.53 -3.53 h -2.624 c -1.946 0 -3.53 1.583 -3.53 3.53 v 4.291 H 8.765 C 3.932 10.061 0 13.993 0 18.826 v 8.592 v 47.727 c 0 4.833 3.932 8.765 8.765 8.765 h 46.259 c 0.553 0 1 -0.447 1 -1 S 55.577 81.91 55.024 81.91 z M 61.725 5.77 c 0 -0.844 0.687 -1.53 1.529 -1.53 h 2.624 c 0.844 0 1.53 0.686 1.53 1.53 v 10.582 c 0 0.844 -0.687 1.53 -1.53 1.53 h -2.624 c -0.843 0 -1.529 -0.686 -1.529 -1.53 V 5.77 z M 15.963 5.77 c 0 -0.844 0.686 -1.53 1.53 -1.53 h 2.624 c 0.844 0 1.53 0.686 1.53 1.53 v 10.582 c 0 0.844 -0.686 1.53 -1.53 1.53 h -2.624 c -0.844 0 -1.53 -0.686 -1.53 -1.53 V 5.77 z M 2 18.826 c 0 -3.73 3.035 -6.766 6.765 -6.766 h 5.198 v 4.291 c 0 1.946 1.583 3.53 3.53 3.53 h 2.624 c 1.946 0 3.53 -1.583 3.53 -3.53 v -4.291 h 36.079 v 4.291 c 0 1.946 1.583 3.53 3.529 3.53 h 2.624 c 1.946 0 3.53 -1.583 3.53 -3.53 v -4.291 h 5.197 c 3.73 0 6.765 3.035 6.765 6.766 v 7.592 H 2 V 18.826 z"
          style="stroke: none; stroke-width: 1; stroke-dasharray: none; stroke-linecap: butt; stroke-linejoin: miter; stroke-miterlimit: 10; fill: rgb(0,0,0); fill-rule: nonzero; opacity: 1;"
          transform=" matrix(1 0 0 1 0 0) " stroke-linecap="round" />
    <path d="M 89.249 55.993 c -0.625 -0.874 -1.554 -1.454 -2.614 -1.631 c -1.062 -0.176 -2.126 0.07 -3.002 0.696 c -0.874 0.625 -1.453 1.554 -1.631 2.617 l -0.598 3.671 l -10.41 -17.368 c -1.142 -1.904 -3.622 -2.525 -5.522 -1.383 c -0.923 0.553 -1.575 1.432 -1.837 2.476 c -0.261 1.043 -0.101 2.125 0.453 3.047 l 3.748 6.254 c -0.705 0.009 -1.397 0.203 -2.018 0.575 c -1.52 0.91 -2.222 2.673 -1.863 4.315 c -0.799 -0.031 -1.572 0.155 -2.265 0.57 c -1.546 0.926 -2.245 2.732 -1.844 4.397 c -0.795 -0.035 -1.584 0.157 -2.277 0.574 c -0.923 0.553 -1.575 1.432 -1.837 2.475 c -0.261 1.043 -0.101 2.126 0.453 3.05 l 6.627 11.053 c 1.802 3.007 4.667 5.132 8.067 5.983 c 1.064 0.267 2.142 0.398 3.211 0.398 c 2.348 0 4.659 -0.635 6.724 -1.873 c 3.141 -1.882 5.365 -5.019 6.105 -8.605 h -0.001 c 0.006 -0.021 0.011 -0.043 0.015 -0.064 c 0.057 -0.284 0.104 -0.569 0.139 -0.828 l 2.872 -17.397 C 90.121 57.935 89.875 56.868 89.249 55.993 z M 87.972 58.667 l -2.877 17.428 c -0.029 0.221 -0.065 0.44 -0.119 0.724 c -0.005 0.021 -0.01 0.042 -0.015 0.063 c -0.627 3.041 -2.513 5.699 -5.175 7.295 c -2.548 1.527 -5.542 1.973 -8.42 1.249 c -2.883 -0.722 -5.312 -2.522 -6.839 -5.071 l -6.528 -10.892 L 57.9 69.3 c -0.278 -0.465 -0.359 -1.01 -0.228 -1.534 c 0.132 -0.525 0.46 -0.968 0.925 -1.246 c 0.322 -0.193 0.687 -0.293 1.058 -0.293 c 0.166 0 0.334 0.021 0.501 0.061 c 0.535 0.13 0.981 0.455 1.258 0.916 l 0.094 0.156 c 0 0.001 0.001 0.001 0.002 0.002 l 1.198 1.998 c 0.188 0.313 0.519 0.486 0.858 0.486 c 0.175 0 0.353 -0.046 0.513 -0.143 c 0.474 -0.283 0.628 -0.897 0.344 -1.371 l -1.199 -2.001 l -1.2 -2.003 c -0.574 -0.959 -0.262 -2.206 0.695 -2.78 c 0.96 -0.574 2.204 -0.262 2.78 0.694 c 0 0.001 0 0.001 0.001 0.002 l 2.4 4.004 c 0.188 0.313 0.519 0.485 0.858 0.485 c 0.175 0 0.353 -0.046 0.514 -0.143 c 0.474 -0.284 0.627 -0.897 0.343 -1.372 l -2.4 -4.004 c 0 0 0 0 0 -0.001 c 0 0 0 -0.001 0 -0.001 l -1.062 -1.771 c -0.574 -0.959 -0.262 -2.206 0.695 -2.78 c 0.465 -0.278 1.01 -0.358 1.534 -0.228 c 0.523 0.131 0.965 0.458 1.243 0.921 l 0.002 0.002 c 0 0 0 0.001 0.001 0.002 l 3.464 5.777 c 0.188 0.313 0.519 0.485 0.858 0.485 c 0.175 0 0.353 -0.046 0.514 -0.143 c 0.474 -0.284 0.627 -0.898 0.343 -1.372 l -3.464 -5.777 c 0 0 -0.001 0 -0.001 -0.001 c -0.001 -0.001 -0.001 -0.003 -0.002 -0.005 l -5.535 -9.234 c -0.278 -0.464 -0.359 -1.008 -0.228 -1.533 s 0.46 -0.967 0.925 -1.246 c 0.959 -0.575 2.204 -0.262 2.779 0.696 l 11.815 19.714 c 0.216 0.361 0.634 0.547 1.046 0.469 c 0.412 -0.079 0.731 -0.407 0.799 -0.821 l 1.036 -6.368 c 0.089 -0.534 0.381 -1.001 0.82 -1.315 c 0.44 -0.314 0.976 -0.438 1.51 -0.351 C 87.408 56.52 88.155 57.564 87.972 58.667 z"
          style="stroke: none; stroke-width: 1; stroke-dasharray: none; stroke-linecap: butt; stroke-linejoin: miter; stroke-miterlimit: 10; fill: rgb(0,0,0); fill-rule: nonzero; opacity: 1;"
          transform=" matrix(1 0 0 1 0 0) " stroke-linecap="round" />
    <path d="M 17.883 41.36 v -1.543 c 0 -1.935 -1.574 -3.509 -3.509 -3.509 H 9.856 c -0.552 0 -1 0.448 -1 1 v 6.562 v 6.562 c 0 0.553 0.448 1 1 1 h 4.518 c 1.935 0 3.509 -1.574 3.509 -3.509 v -1.544 c 0 -0.984 -0.41 -1.871 -1.064 -2.509 C 17.474 43.232 17.883 42.344 17.883 41.36 z M 15.883 46.379 v 1.544 c 0 0.832 -0.677 1.509 -1.509 1.509 h -3.518 V 44.87 h 3.518 C 15.206 44.87 15.883 45.547 15.883 46.379 z M 10.856 42.87 v -4.562 h 3.518 c 0.832 0 1.509 0.677 1.509 1.509 v 1.543 c 0 0.832 -0.677 1.509 -1.509 1.509 H 10.856 z"
          style="stroke: none; stroke-width: 1; stroke-dasharray: none; stroke-linecap: butt; stroke-linejoin: miter; stroke-miterlimit: 10; fill: rgb(0,0,0); fill-rule: nonzero; opacity: 1;"
          transform=" matrix(1 0 0 1 0 0) " stroke-linecap="round" />
    <path d="M 27.874 51.432 c 2.112 0 3.83 -1.718 3.83 -3.829 v -7.465 c 0 -2.112 -1.718 -3.83 -3.83 -3.83 h -2.487 c -2.112 0 -3.83 1.718 -3.83 3.83 v 7.465 c 0 2.111 1.718 3.829 3.83 3.829 H 27.874 z M 23.558 47.603 v -7.465 c 0 -1.009 0.821 -1.83 1.83 -1.83 h 2.487 c 1.009 0 1.83 0.821 1.83 1.83 v 7.465 c 0 1.009 -0.821 1.829 -1.83 1.829 h -2.487 C 24.378 49.432 23.558 48.611 23.558 47.603 z"
          style="stroke: none; stroke-width: 1; stroke-dasharray: none; stroke-linecap: butt; stroke-linejoin: miter; stroke-miterlimit: 10; fill: rgb(0,0,0); fill-rule: nonzero; opacity: 1;"
          transform=" matrix(1 0 0 1 0 0) " stroke-linecap="round" />
    <path d="M 41.135 51.432 c 2.112 0 3.83 -1.718 3.83 -3.829 v -7.465 c 0 -2.112 -1.718 -3.83 -3.83 -3.83 h -2.487 c -2.112 0 -3.83 1.718 -3.83 3.83 v 7.465 c 0 2.111 1.718 3.829 3.83 3.829 H 41.135 z M 36.819 47.603 v -7.465 c 0 -1.009 0.821 -1.83 1.83 -1.83 h 2.487 c 1.009 0 1.83 0.821 1.83 1.83 v 7.465 c 0 1.009 -0.821 1.829 -1.83 1.829 h -2.487 C 37.64 49.432 36.819 48.611 36.819 47.603 z"
          style="stroke: none; stroke-width: 1; stroke-dasharray: none; stroke-linecap: butt; stroke-linejoin: miter; stroke-miterlimit: 10; fill: rgb(0,0,0); fill-rule: nonzero; opacity: 1;"
          transform=" matrix(1 0 0 1 0 0) " stroke-linecap="round" />
    <path d="M 57.441 36.616 c -0.376 -0.407 -1.009 -0.43 -1.413 -0.055 l -5.43 5.022 v -4.287 c 0 -0.552 -0.447 -1 -1 -1 s -1 0.448 -1 1 v 13.149 c 0 0.553 0.447 1 1 1 s 1 -0.447 1 -1 v -4.288 l 5.417 5.01 c 0.192 0.178 0.436 0.266 0.679 0.266 c 0.269 0 0.537 -0.108 0.734 -0.321 c 0.375 -0.405 0.35 -1.038 -0.056 -1.413 l -6.302 -5.828 l 6.314 -5.84 C 57.791 37.655 57.816 37.022 57.441 36.616 z"
          style="stroke: none; stroke-width: 1; stroke-dasharray: none; stroke-linecap: butt; stroke-linejoin: miter; stroke-miterlimit: 10; fill: rgb(0,0,0); fill-rule: nonzero; opacity: 1;"
          transform=" matrix(1 0 0 1 0 0) " stroke-linecap="round" />
    <path d="M 8.856 72.986 c 0 0.553 0.448 1 1 1 s 1 -0.447 1 -1 v -9.641 l 6.312 10.168 c 0.186 0.299 0.51 0.473 0.85 0.473 c 0.091 0 0.183 -0.013 0.274 -0.038 c 0.429 -0.123 0.726 -0.516 0.726 -0.962 V 59.838 c 0 -0.553 -0.448 -1 -1 -1 s -1 0.447 -1 1 v 9.641 l -6.312 -10.168 c -0.235 -0.38 -0.693 -0.555 -1.124 -0.435 c -0.429 0.123 -0.726 0.516 -0.726 0.962 V 72.986 z"
          style="stroke: none; stroke-width: 1; stroke-dasharray: none; stroke-linecap: butt; stroke-linejoin: miter; stroke-miterlimit: 10; fill: rgb(0,0,0); fill-rule: nonzero; opacity: 1;"
          transform=" matrix(1 0 0 1 0 0) " stroke-linecap="round" />
    <path d="M 26.966 73.974 h 2.487 c 2.112 0 3.83 -1.718 3.83 -3.829 V 62.68 c 0 -2.112 -1.718 -3.83 -3.83 -3.83 h -2.487 c -2.112 0 -3.83 1.718 -3.83 3.83 v 7.465 C 23.137 72.256 24.854 73.974 26.966 73.974 z M 25.137 62.68 c 0 -1.009 0.821 -1.83 1.83 -1.83 h 2.487 c 1.009 0 1.83 0.821 1.83 1.83 v 7.465 c 0 1.009 -0.821 1.829 -1.83 1.829 h -2.487 c -1.009 0 -1.83 -0.82 -1.83 -1.829 V 62.68 z"
          style="stroke: none; stroke-width: 1; stroke-dasharray: none; stroke-linecap: butt; stroke-linejoin: miter; stroke-miterlimit: 10; fill: rgb(0,0,0); fill-rule: nonzero; opacity: 1;"
          transform=" matrix(1 0 0 1 0 0) " stroke-linecap="round" />
    <path d="M 39.034 72.729 c 0.099 0.434 0.471 0.749 0.915 0.775 c 0.43 0.016 0.851 -0.242 1.001 -0.66 l 2.354 -6.549 l 2.354 6.549 c 0.143 0.399 0.521 0.662 0.941 0.662 c 0.02 0 0.04 -0.001 0.06 -0.002 c 0.443 -0.026 0.816 -0.342 0.915 -0.775 l 3.009 -13.148 c 0.123 -0.538 -0.213 -1.074 -0.752 -1.197 c -0.53 -0.126 -1.075 0.212 -1.197 0.752 l -2.247 9.82 l -2.141 -5.955 c -0.143 -0.397 -0.519 -0.662 -0.941 -0.662 s -0.798 0.265 -0.941 0.662 l -2.141 5.955 l -2.247 -9.82 c -0.123 -0.539 -0.658 -0.876 -1.198 -0.752 c -0.538 0.123 -0.875 0.659 -0.751 1.197 L 39.034 72.729 z"
          style="stroke: none; stroke-width: 1; stroke-dasharray: none; stroke-linecap: butt; stroke-linejoin: miter; stroke-miterlimit: 10; fill: rgb(0,0,0); fill-rule: nonzero; opacity: 1;"
          transform=" matrix(1 0 0 1 0 0) " stroke-linecap="round" />
</g>
</svg>